# xmcd
#
# Track frame offsets: 
#        150
#        13232
#        24475
#        41021
#        54806
#        67493
#        80907
#        100780
#        117683
#        131236
#        158915
#        174437
#        185056
#        200503
#        211386
#        227464
#
# Disc length: 3332 seconds
#
# Revision: 4
# Processed by: cddbd v1.5.2PL0 Copyright (c) Steve Scherf et al.
# Submitted via: ExactAudioCopyFreeDBPlugin 1.0
#
DISCID=eb0d0210
DTITLE=Multiple Artists - Blues Anthology - Disc 2
DYEAR=2000
DGENRE=Blues
TTITLE0=Elmore James - Dust My Broom
TTITLE1=John Lee Hooker - Boom Boom
TTITLE2=Albert King - Get Out Of My Life
TTITLE3=Lightnin' Hopkins - Mojo Hand
TTITLE4=T-Bone Walker - Hypin' Woman Blues
TTITLE5=Eddie Taylor - Big Town Playboy
TTITLE6=Albert Collins - Too Many Dirty Dishes
TTITLE7=Rod Plazza - Mellow Down Easy
TTITLE8=Sonny Boy Williamson - Good Morning, Little Schoolgirl
TTITLE9=Muddy Waters - Caldonia
TTITLE10=Bessie Smith - Careless Love Blues
TTITLE11=Arthur 'Big Boy' Crudup - That's All Right
TTITLE12=Big Joe Williams - Nobody Knows You When Your Down And Out
TTITLE13=Robert Johnson - From Four Til Late
TTITLE14=Keb 'Mo' - Kindhearted Woman Blues
TTITLE15=Luther Allison - Sweet Home Chicago
EXTD=YEAR: 2000
EXTT0=
EXTT1=
EXTT2=
EXTT3=
EXTT4=
EXTT5=
EXTT6=
EXTT7=
EXTT8=
EXTT9=
EXTT10=
EXTT11=
EXTT12=
EXTT13=
EXTT14=
EXTT15=
PLAYORDER=
